<svg width="64" height="64" viewBox="0 0 64 64" fill="none" xmlns="http://www.w3.org/2000/svg">
<rect width="64" height="64" rx="12" fill="url(#paint0_linear_1_2)"/>
<path d="M32 12C30.6739 12 29.4021 12.5268 28.4645 13.4645C27.5268 14.4021 27 15.6739 27 17V30H17C15.6739 30 14.4021 30.5268 13.4645 31.4645C12.5268 32.4021 12 33.6739 12 35C12 36.3261 12.5268 37.5979 13.4645 38.5355C14.4021 39.4732 15.6739 40 17 40H27V47C27 48.3261 27.5268 49.5979 28.4645 50.5355C29.4021 51.4732 30.6739 52 32 52C33.3261 52 34.5979 51.4732 35.5355 50.5355C36.4732 49.5979 37 48.3261 37 47V40H47C48.3261 40 49.5979 39.4732 50.5355 38.5355C51.4732 37.5979 52 36.3261 52 35C52 33.6739 51.4732 32.4021 50.5355 31.4645C49.5979 30.5268 48.3261 30 47 30H37V17C37 15.6739 36.4732 14.4021 35.5355 13.4645C34.5979 12.5268 33.3261 12 32 12ZM32 35C32 35.7956 31.6839 36.5587 31.1213 37.1213C30.5587 37.6839 29.7956 38 29 38H19C18.2044 38 17.4413 37.6839 16.8787 37.1213C16.3161 36.5587 16 35.7956 16 35C16 34.2044 16.3161 33.4413 16.8787 32.8787C17.4413 32.3161 18.2044 32 19 32H29C29.7956 32 30.5587 32.3161 31.1213 32.8787C31.6839 33.4413 32 34.2044 32 35ZM45 38H35C34.2044 38 33.4413 37.6839 32.8787 37.1213C32.3161 36.5587 32 35.7956 32 35C32 34.2044 32.3161 33.4413 32.8787 32.8787C33.4413 32.3161 34.2044 32 35 32H45C45.7956 32 46.5587 32.3161 47.1213 32.8787C47.6839 33.4413 48 34.2044 48 35C48 35.7956 47.6839 36.5587 47.1213 37.1213C46.5587 37.6839 45.7956 38 45 38ZM32 28C32 27.2044 31.6839 26.4413 31.1213 25.8787C30.5587 25.3161 29.7956 25 29 25V19C29 18.2044 29.3161 17.4413 29.8787 16.8787C30.4413 16.3161 31.2044 16 32 16C32.7956 16 33.5587 16.3161 34.1213 16.8787C34.6839 17.4413 35 18.2044 35 19V25C34.2044 25 33.4413 25.3161 32.8787 25.8787C32.3161 26.4413 32 27.2044 32 28Z" fill="white"/>
<defs>
<linearGradient id="paint0_linear_1_2" x1="0" y1="0" x2="64" y2="64" gradientUnits="userSpaceOnUse">
<stop stop-color="#A855F7"/>
<stop offset="1" stop-color="#3B82F6"/>
</linearGradient>
</defs>
</svg>